<svg xmlns="http://www.w3.org/2000/svg" version="1.1" xmlns:xlink="http://www.w3.org/1999/xlink" width="512" height="512" x="0" y="0" viewBox="0 0 64 64" style="enable-background:new 0 0 512 512" xml:space="preserve" class=""><g transform="matrix(1.2000000000000002,0,0,1.2000000000000002,-6.399899959564216,-6.397979474067689)"><path d="M33 57v4a1 1 0 0 1-2 0v-4a1 1 0 0 1 2 0Zm9-35a1 1 0 0 0-1 1 1.001 1.001 0 0 1-1 1h-6a1.001 1.001 0 0 1-1-1v-3a1 1 0 0 0-2 0v3a1.001 1.001 0 0 1-1 1h-6a1.001 1.001 0 0 1-1-1 1 1 0 0 0-2 0 3.003 3.003 0 0 0 3 3h6a2.973 2.973 0 0 0 1-.179V31a1.001 1.001 0 0 1-1 1h-5a1.001 1.001 0 0 1-1-1 1 1 0 0 0-2 0 3.003 3.003 0 0 0 3 3h5a2.973 2.973 0 0 0 1-.179V39a1.001 1.001 0 0 1-1 1h-4a1.001 1.001 0 0 1-1-1 1 1 0 0 0-2 0 3.003 3.003 0 0 0 3 3h4a2.973 2.973 0 0 0 1-.179V45a1 1 0 0 0 2 0v-3.179A2.973 2.973 0 0 0 34 42h4a3.003 3.003 0 0 0 3-3 1 1 0 0 0-2 0 1.001 1.001 0 0 1-1 1h-4a1.001 1.001 0 0 1-1-1v-5.179A2.973 2.973 0 0 0 34 34h5a3.003 3.003 0 0 0 3-3 1 1 0 0 0-2 0 1.001 1.001 0 0 1-1 1h-5a1.001 1.001 0 0 1-1-1v-5.179A2.973 2.973 0 0 0 34 26h6a3.003 3.003 0 0 0 3-3 1 1 0 0 0-1-1ZM18 12a1 1 0 1 0-1-1 1 1 0 0 0 1 1Zm28 0a1 1 0 1 0-1-1 1 1 0 0 0 1 1Zm6.952 2.26a104.776 104.776 0 0 1-2.914 19.743 59.186 59.186 0 0 1 1.96 13.638C52.809 48.717 55 52.42 55 61a1 1 0 0 1-2 0c0-7.24-1.618-10.628-2.356-11.797A57.076 57.076 0 0 1 32 52a57.07 57.07 0 0 1-18.646-2.798C12.623 50.362 11 53.749 11 61a1 1 0 0 1-2 0c0-8.578 2.192-12.283 3.001-13.36a59.186 59.186 0 0 1 1.96-13.637 104.776 104.776 0 0 1-2.913-19.743 9.932 9.932 0 0 1-1.9-3.599l-2.11-7.387a1 1 0 1 1 1.923-.548l2.11 7.386A8.235 8.235 0 0 0 19 16a44.878 44.878 0 0 0 8.3-1.713A5.002 5.002 0 0 0 31 9.46V7a1 1 0 0 1 2 0v2.459a5.002 5.002 0 0 0 3.7 4.828A44.878 44.878 0 0 0 45 16a8.235 8.235 0 0 0 7.928-5.888l2.11-7.386a1 1 0 1 1 1.923.548l-2.11 7.387a9.932 9.932 0 0 1-1.899 3.6ZM48.04 33.726a98.154 98.154 0 0 0 2.788-17.537A10.324 10.324 0 0 1 45 18a44.304 44.304 0 0 1-8.818-1.781A6.973 6.973 0 0 1 32 13.027a6.973 6.973 0 0 1-4.182 3.192A44.304 44.304 0 0 1 19 18a10.324 10.324 0 0 1-5.827-1.811 98.154 98.154 0 0 0 2.788 17.537.998.998 0 0 1 0 .548 58.942 58.942 0 0 0-1.95 13.036A55.873 55.873 0 0 0 32 50a55.668 55.668 0 0 0 17.988-2.69 58.82 58.82 0 0 0-1.95-13.036.998.998 0 0 1 0-.548Z" data-name="27-Body" fill="#000000" opacity="1" data-original="#000000" class=""></path></g></svg>