<svg xmlns="http://www.w3.org/2000/svg" version="1.1" xmlns:xlink="http://www.w3.org/1999/xlink" width="512" height="512" x="0" y="0" viewBox="0 0 340 340" style="enable-background:new 0 0 512 512" xml:space="preserve" class=""><g><path d="M25.185 192.7A3.987 3.987 0 0 0 28 191.545c14.14-14.011 26.748-19.143 26.866-19.19.1-.041.2-.087.3-.136.287-.143 29.084-14.18 54.062-10.647 1.09.213 17.915 3.74 35.716 19.7 2.255 2.815 19.326 23.378 43.478 32.329a4 4 0 0 0 2.779-7.5c-14.429-5.349-26.377-15.569-33.4-22.595a98.529 98.529 0 0 0 18.185-1.042 3.826 3.826 0 0 0 .423-.088 83.462 83.462 0 0 1 29.274-1.439 4 4 0 1 0 1.127-7.919 90.436 90.436 0 0 0-32.221 1.566 87.32 87.32 0 0 1-24.932.172c-19.754-17.441-38.281-20.928-39.071-21.07l-.142-.023c-26.836-3.83-56.129 10.068-58.689 11.316-1.692.7-14.727 6.35-29.393 20.882a4 4 0 0 0 2.816 6.842z" fill="#000000" opacity="1" data-original="#000000" class=""></path><path d="M307.053 180.978c-2.039-4.217-4.075-8.818-6.6-14.922-14.784-35.722-40.923-71.856-51.475-85.738-2.633-3.463-5.414-7.335-8.5-11.838a126.543 126.543 0 0 0-19.759-22.829 64.4 64.4 0 0 0-22.377-12.973 225.21 225.21 0 0 0-45.073-9.914 23.773 23.773 0 0 0-16.145 3.949 67.753 67.753 0 0 0-12.7 11.522l-9.744 10.981a11.607 11.607 0 0 0-1.413 13.5 48.749 48.749 0 0 0 5.82 8.009 11.444 11.444 0 0 0 5.747 3.5 4 4 0 0 0 1.977-7.752 3.466 3.466 0 0 1-1.743-1.058 40.884 40.884 0 0 1-4.868-6.686 3.62 3.62 0 0 1 .464-4.206l4.441-5A74.309 74.309 0 0 0 139.986 79.4a14.93 14.93 0 0 0 18.139 3.778l5.077-2.516c9.007 5.972 22.416 4.791 28.023 3.95 12.856 17.725 19.1 39.647 20.039 43.128-.349 41.182 11.92 57.319 13.659 59.4a73.023 73.023 0 0 0 13.909 14.16 36.242 36.242 0 0 1-9.294 5.77 4 4 0 1 0 3.2 7.334 42.9 42.9 0 0 0 12.941-8.541 49.59 49.59 0 0 0 4.887 2.443 4 4 0 1 0 3.161-7.348c-13.138-5.651-22.2-18.342-22.363-18.57-.048-.069-.109-.122-.16-.186s-.076-.119-.123-.173c-.123-.141-12.256-14.551-11.809-54.74a4.038 4.038 0 0 0-.12-1.015c-.258-1.03-6.009-23.586-19.4-43.416a4 4 0 1 0-1.709-7.815l-5.932 1.3c-4.936 1.06-19.195 2.522-25.808-3.352a4 4 0 0 0-4.433-.593l-7.3 3.619a6.954 6.954 0 0 1-8.452-1.747 60.899 60.899 0 0 1-2.212-2.819l4.61-3.53a4 4 0 1 0-4.866-6.351l-4.085 3.13a66.78 66.78 0 0 1-3.643-7.617l5.6-4.3a4 4 0 0 0-4.875-6.343l-3.4 2.616a74.629 74.629 0 0 1-1.546-6.978 60.006 60.006 0 0 1 9.948-8.757 15.785 15.785 0 0 1 10.715-2.6 217.035 217.035 0 0 1 43.41 9.54 56.436 56.436 0 0 1 19.617 11.362A118.538 118.538 0 0 1 233.879 73c3.162 4.613 6.017 8.589 8.73 12.157 10.365 13.631 36.026 49.1 50.452 83.955 2.586 6.252 4.68 10.984 6.79 15.345 3.683 7.62 10 22.889 10.942 39.549a13.9 13.9 0 0 1-9.151 13.869 27.707 27.707 0 0 1-7.765 1.67 4.007 4.007 0 0 0-1.6.418A117.747 117.747 0 0 1 269 248.321a62.81 62.81 0 0 0-17.164 6.56c-12.81 7.211-41.822 19.552-92.2 21.215a54.7 54.7 0 0 0-23.018 5.935 4 4 0 1 0 3.666 7.11 46.551 46.551 0 0 1 12.255-4.2c-3.393 6.736-8.064 17.442-9.6 27.873a4 4 0 1 0 7.915 1.163c1.78-12.113 8.591-25.22 11.236-29.963 50.74-2 80.409-14.7 93.667-22.159a54.845 54.845 0 0 1 14.98-5.724 123.79 123.79 0 0 0 24.373-8.644 36.708 36.708 0 0 0 9.188-2.061 21.944 21.944 0 0 0 14.482-21.864c-1.015-18.05-7.78-34.428-11.727-42.584z" fill="#000000" opacity="1" data-original="#000000" class=""></path><path d="M273.294 213.215h.2a4 4 0 0 0 .194-8 71.014 71.014 0 0 1-3.525-.262 4 4 0 0 0-.793 7.961c1.296.139 2.616.237 3.924.301z" fill="#000000" opacity="1" data-original="#000000" class=""></path></g></svg>