<svg xmlns="http://www.w3.org/2000/svg" version="1.1" xmlns:xlink="http://www.w3.org/1999/xlink" width="512" height="512" x="0" y="0" viewBox="0 0 128 128" style="enable-background:new 0 0 512 512" xml:space="preserve" class=""><g transform="matrix(0.8400000000000004,0,0,0.8400000000000004,5.239999999999974,0.23999999999997357)"><path d="M77.239 38.42v-4.9a5.256 5.256 0 0 1 5.25-5.25h5.326a1.75 1.75 0 0 0 0-3.5h-5.326a8.76 8.76 0 0 0-8.75 8.75v4.85h-9.023V34a18.271 18.271 0 0 1 18.25-18.25h4.849a1.75 1.75 0 0 0 0-3.5h-4.849A21.775 21.775 0 0 0 61.216 34v4.37h-1.909a8.26 8.26 0 0 1-8.25-8.25V7a1.75 1.75 0 0 0-3.5 0v23.12a11.763 11.763 0 0 0 11.75 11.75h16.182a28.281 28.281 0 0 1 28.25 28.25v1.6c-9.2-.725-11.9-7.034-12.021-7.33a1.75 1.75 0 0 0-3.253 1.293c.147.374 3.612 8.751 15.274 9.533V111a8.259 8.259 0 0 1-8.25 8.25h-7.627c.011-4.921-.065-7.9-2.638-16.3-3.109-10.15 4.576-14.804 4.924-15.01a1.75 1.75 0 0 0-1.748-3.034 15.9 15.9 0 0 0-7.069 16.875A20.9 20.9 0 0 1 70.955 98.9a1.75 1.75 0 1 0-1.839 2.978 24.423 24.423 0 0 0 12.615 3.415c.194 0 .371 0 .541-.006 2.033 6.9 2.1 9.507 2.09 13.962h-7.578A38.293 38.293 0 0 1 38.534 81V69.273h5.3a5.256 5.256 0 0 1 5.25 5.25v1.643a1.75 1.75 0 0 0 3.5 0v-1.643a8.76 8.76 0 0 0-8.75-8.75H22.511a1.75 1.75 0 1 0 0 3.5h12.523V81a41.8 41.8 0 0 0 41.75 41.75h18.7A11.763 11.763 0 0 0 107.239 111V70.12a31.789 31.789 0 0 0-30-31.7Z" fill="#000000" opacity="1" data-original="#000000" class=""></path><path d="M22.511 56.75h20.841A18.271 18.271 0 0 1 61.6 75v1.166a1.75 1.75 0 0 0 3.5 0V75a21.775 21.775 0 0 0-21.75-21.75h-4.816V7a1.75 1.75 0 0 0-3.5 0v46.25H22.511a1.75 1.75 0 1 0 0 3.5Z" fill="#000000" opacity="1" data-original="#000000" class=""></path></g></svg>