<svg xmlns="http://www.w3.org/2000/svg" version="1.1" xmlns:xlink="http://www.w3.org/1999/xlink" width="512" height="512" x="0" y="0" viewBox="0 0 64 64" style="enable-background:new 0 0 512 512" xml:space="preserve" class=""><g transform="matrix(1.1200000000000003,0,0,1.1200000000000003,-3.840024833679216,-3.8399399757385453)"><path d="M4.567 17.84a1 1 0 0 0 1.335-.468c.022-.047 2.352-4.72 9.737-3.783a.997.997 0 0 0 .9-.36 10.508 10.508 0 0 1 9.297-3.368 1.007 1.007 0 0 0 1.161-.987V6.565h10.006v2.309a1.006 1.006 0 0 0 1.16.987 10.363 10.363 0 0 1 9.298 3.368.997.997 0 0 0 .9.36c7.314-.928 9.644 3.596 9.737 3.783a1 1 0 0 0 1.804-.865c-.116-.241-2.868-5.779-11.271-4.961a12.464 12.464 0 0 0-9.628-3.793V5.565a1 1 0 0 0-1-1H25.997a1 1 0 0 0-1 1v2.188a12.469 12.469 0 0 0-9.628 3.793c-8.4-.822-11.155 4.72-11.27 4.96a1 1 0 0 0 .468 1.335zM59.112 38.554c-1.325-.127-4.783-.972-5.792-2.865a1.013 1.013 0 0 0-1.64.3 4.516 4.516 0 0 1-4.365 2.56 1 1 0 0 0-.991 1.29c.009.03.86 2.975-2.272 5.554a1 1 0 0 0 1.272 1.544 7.71 7.71 0 0 0 3.1-6.438 6.274 6.274 0 0 0 2.829-1.057 35.568 35.568 0 0 1-3.46 9.46l-1.365 8.533H33v-5.902a1 1 0 0 0-2 0v5.902H17.572L16.206 48.9a35.644 35.644 0 0 1-3.459-9.459 6.274 6.274 0 0 0 2.828 1.057 7.71 7.71 0 0 0 3.101 6.438 1 1 0 0 0 1.272-1.544c-3.09-2.543-2.304-5.44-2.272-5.554a1.005 1.005 0 0 0-.991-1.29c-3.623-.04-4.09-2.422-4.61-2.895a1.006 1.006 0 0 0-1.544.226c-1.02 1.78-4.42 2.534-5.644 2.675a1 1 0 0 0 .225 1.987 13.706 13.706 0 0 0 5.463-1.913 32.559 32.559 0 0 0 3.683 10.756l1.474 9.208a1 1 0 0 0 .988.842h30.56a1 1 0 0 0 .988-.842l1.474-9.208a32.559 32.559 0 0 0 3.683-10.757 13.704 13.704 0 0 0 5.463 1.914 1 1 0 0 0 .224-1.988zM36.979 21.266a1 1 0 0 0-1.958.408 11.799 11.799 0 0 0 9.484 8.78 1 1 0 0 0 .366-1.967 9.815 9.815 0 0 1-7.892-7.221zM27.021 21.265a9.814 9.814 0 0 1-7.892 7.222 1 1 0 0 0 .366 1.967 11.799 11.799 0 0 0 9.484-8.78 1 1 0 0 0-1.958-.41z" fill="#000000" opacity="1" data-original="#000000" class=""></path><path d="M33 29.476a1 1 0 0 0-2 0v6.901a1 1 0 0 0 2 0zM32 39.505a1 1 0 0 0-1 1v6.9a1 1 0 0 0 2 0v-6.9a1 1 0 0 0-1-1z" fill="#000000" opacity="1" data-original="#000000" class=""></path></g></svg>