<svg xmlns="http://www.w3.org/2000/svg" version="1.1" xmlns:xlink="http://www.w3.org/1999/xlink" width="512" height="512" x="0" y="0" viewBox="0 0 340 340" style="enable-background:new 0 0 512 512" xml:space="preserve" class=""><g><path d="M300.969 114.74c-6.963-25.272-23.919-42.349-33.406-50.279a23.782 23.782 0 0 1-8.372-15.739 161.889 161.889 0 0 1-.515-26.077 4 4 0 0 0-7.988-.454 170.138 170.138 0 0 0 .552 27.41 31.747 31.747 0 0 0 11.192 21c19.932 16.659 60.559 63.391 7.468 137.338a3.988 3.988 0 0 0-.609 1.281 50.709 50.709 0 0 0-1.117 15.047 3.972 3.972 0 0 0 .065.52c.08.415 7.922 41.978 2.929 76.969a4 4 0 0 0 3.395 4.525 4.077 4.077 0 0 0 .57.04 4 4 0 0 0 3.955-3.435c5.029-35.237-2.192-75.341-2.942-79.341a46.385 46.385 0 0 1 .722-11.595c24.347-34.184 32.456-66.886 24.101-97.21zM174.783 265.206a4 4 0 0 0-3.558 4.4c2.253 21.294 6.775 45.851 10.175 62.705a4 4 0 1 0 7.842-1.581c-2.755-13.66-7.725-39.876-10.061-61.967a4 4 0 0 0-4.398-3.557zM118.043 322.7a4 4 0 0 0 5.637-.475c22.883-27.1 52.789-69.368 53.454-70.309l.014-.019c5.357-7.5 19.974-32.827 23.411-38.809a84.371 84.371 0 0 0 47.317-54.2c12.282-41.9-18.086-71.14-19.385-72.365A4 4 0 0 0 223 92.332c1.152 1.093 28.077 27.188 17.2 64.3-10.98 37.463-43.407 49.346-43.726 49.46a3.994 3.994 0 0 0-2.15 1.788c-.179.313-17.983 31.391-23.7 39.381l-.006.011-.008.009c-.3.425-30.244 42.783-53.044 69.78a4 4 0 0 0 .477 5.639zM39.264 252.575a3.931 3.931 0 0 0 .589.044 4 4 0 0 0 3.952-3.417c4.088-27.7 18.664-99.849 65.6-171.39a4 4 0 0 0 .655-2.21c0-.126-.061-12.805-1.142-28.973-.383-5.735-.509-13.054-.375-21.754a4 4 0 0 0-8-.124c-.138 8.919-.006 16.459.392 22.412.874 13.068 1.071 23.8 1.113 27.28-47.285 72.539-62.013 145.5-66.159 173.591a4 4 0 0 0 3.375 4.541zM214.114 4.481a3.993 3.993 0 0 0-4.128 3.867c-.028.841-.645 20.769 1.8 36.153a4 4 0 0 0 7.9-1.257c-2.326-14.62-1.715-34.437-1.708-34.635a4 4 0 0 0-3.864-4.128z" fill="#000000" opacity="1" data-original="#000000" class=""></path></g></svg>