<svg xmlns="http://www.w3.org/2000/svg" version="1.1" xmlns:xlink="http://www.w3.org/1999/xlink" width="512" height="512" x="0" y="0" viewBox="0 0 500 500" style="enable-background:new 0 0 512 512" xml:space="preserve" class=""><g transform="matrix(1.220000000000001,0,0,1.220000000000001,-230.05816443443302,-54.62566398620629)"><path d="M28.147 234.594c-.268-71.97 49.916-84.374 71.505-86.366a84.379 84.379 0 0 0 24.655-5.988c22.071-9.173 46.023-23.11 62.23-33.185a35.39 35.39 0 0 0 16.793-30.243V62.648c-.209-6.592-9.783-6.627-10 0v16.164a25.45 25.45 0 0 1-12.072 21.75c-15.893 9.88-39.339 23.529-60.789 32.444a74.354 74.354 0 0 1-21.736 5.264c-47.15 3.921-81.991 38.946-80.586 96.3-.026 1.437-.353 21.023.9 36.394a63.975 63.975 0 0 1-1.444 19.754 454.38 454.38 0 0 0-11.6 94.843c-.044 4.075-.969 12.5-.979 12.58a5 5 0 1 0 9.94 1.1c.04-.365.989-9 1.039-13.568A444.061 444.061 0 0 1 27.34 292.99a73.966 73.966 0 0 0 1.672-22.838c-1.236-15.295-.866-35.129-.865-35.558zM495.519 398.146c-.009-.084-.935-8.5-.979-12.58a454.452 454.452 0 0 0-11.6-94.843 63.922 63.922 0 0 1-1.443-19.754c1.256-15.371.929-34.957.9-36.394 1.369-57.389-33.361-92.342-80.585-96.3a74.379 74.379 0 0 1-21.736-5.265c-21.447-8.914-44.894-22.564-60.788-32.444a25.45 25.45 0 0 1-12.073-21.75V62.648c-.2-6.578-9.769-6.649-10 0v16.164a35.392 35.392 0 0 0 16.794 30.243c16.208 10.076 40.161 24.013 62.229 33.185a84.371 84.371 0 0 0 24.655 5.988c21.6 1.943 71.876 14.545 71.505 86.479 0 .2.366 20.317-.87 35.447a73.894 73.894 0 0 0 1.672 22.839 444.207 444.207 0 0 1 11.337 92.683c.051 4.57 1 13.2 1.039 13.568.841 6.367 10.406 5.69 9.943-1.098z" fill="#000000" opacity="1" data-original="#000000" class=""></path><path d="M227.212 346.7c-43.659 17.548-88.874 18.871-115.187 3.37-16.756-9.871-28.86-61.236-32.109-80.195a5 5 0 0 0-9.857 1.688c.9 5.273 7.12 39.772 19.113 64.419-.024 5.666-.006 42.641 4.359 55.982l7.412 87.82a5 5 0 1 0 9.965-.841l-7.461-88.4c-.036-.207-.066-.413-.115-.62-2.495-7.1-3.521-23.354-3.935-37.753a31.347 31.347 0 0 0 7.552 6.516c36.354 20.045 82.93 13.31 123.991-2.707 6.036-2.636 2.505-11.552-3.728-9.279z" fill="#000000" opacity="1" data-original="#000000" class=""></path><path d="M228.844 374.054c-16.177.753-46.4 18.8-49.788 20.859a5 5 0 1 0 5.181 8.552c8.618-5.219 33.516-18.884 45.072-19.422 6.571-.497 6.163-10.092-.465-9.989zM426.4 265.794a5 5 0 0 0-5.772 4.083c-3.249 18.959-15.353 70.324-32.11 80.195-26.313 15.5-71.527 14.178-115.186-3.37a5 5 0 1 0-3.729 9.278c41.027 16.02 87.68 22.749 123.997 2.709a31.357 31.357 0 0 0 7.552-6.518c-.414 14.381-1.439 30.656-3.929 37.729-.282.761-7.433 88.274-7.583 89.045-.356 6.586 9.2 7.424 9.966.841l7.413-87.824c4.365-13.346 4.382-50.321 4.358-55.98 11.994-24.647 18.21-59.144 19.113-64.417a5 5 0 0 0-4.09-5.771z" fill="#000000" opacity="1" data-original="#000000" class=""></path><path d="M321.493 394.913c2.43 1.449-53.956-32.828-55.016-16.1a5 5 0 0 0 4.762 5.227c11.556.538 36.454 14.2 45.073 19.422a5 5 0 1 0 5.181-8.552zM151.5 150.666c-5.737-3.247-10.74 4.943-5.182 8.553-2.185-1.305 53.955 32.8 55.016 16.1a5 5 0 0 0-4.762-5.227c-11.554-.541-36.453-14.206-45.072-19.426zM303.911 180.077c16.177-.752 46.4-18.8 49.789-20.858a5 5 0 0 0-5.181-8.553c-8.619 5.22-33.517 18.885-45.073 19.422-6.595.532-6.158 10.072.465 9.989zM124.587 328.971c-6.605.2-6.611 9.8 0 10h13.994c6.605-.2 6.611-9.8 0-10zM375.434 338.971c6.6-.2 6.611-9.8 0-10h-14a5 5 0 0 0 0 10z" fill="#000000" opacity="1" data-original="#000000" class=""></path></g></svg>