<svg xmlns="http://www.w3.org/2000/svg" version="1.1" xmlns:xlink="http://www.w3.org/1999/xlink" width="512" height="512" x="0" y="0" viewBox="0 0 340 340" style="enable-background:new 0 0 512 512" xml:space="preserve" class=""><g transform="matrix(1.5000000000000027,0,0,1.5000000000000027,-85.00025558471728,-45.00010776519807)"><path d="M198.468 16.191a4 4 0 0 0-4 4V57.5a4 4 0 0 0 8 0v-3.159c9.785 7.562 28.9 20.6 48.023 23.835 23.015 3.895 28.916 23.1 29.152 23.9a3.97 3.97 0 0 0 .169.477c5.4 12.593 7.947 44.083 6.994 86.4a106.964 106.964 0 0 0 3.695 30.036 204.549 204.549 0 0 1 6.588 54.7 4 4 0 0 0 3.945 4.055h.056a4 4 0 0 0 4-3.945 212.741 212.741 0 0 0-6.859-56.878 98.951 98.951 0 0 1-3.426-27.788c.572-25.419.349-70.757-7.55-89.517-.883-2.829-8.573-24.777-35.428-29.321-21.31-3.607-43.739-21.508-49.358-26.234v-23.87a4 4 0 0 0-4.001-4z" fill="#000000" opacity="1" data-original="#000000" class=""></path><path d="M261.625 310.055a4 4 0 0 0 3.961 3.484 4.205 4.205 0 0 0 .522-.033 4 4 0 0 0 3.45-4.483c-3.175-24.394-5.115-55.465-5.989-71.814a89.363 89.363 0 0 0-2.623-17.141c-4.136-16.3-6.488-32.1-6.621-33-.071-.613-1.1-9.653-1.1-17.289a39.326 39.326 0 0 0 5.429-10.381 54.383 54.383 0 0 0 3-16.472 4 4 0 0 0-4-3.972h-.03a4 4 0 0 0-3.971 4.028 46.382 46.382 0 0 1-2.564 13.809 32.219 32.219 0 0 1-30.594 21.5H204.54a30.5 30.5 0 0 1-9.555-1.434 11.833 11.833 0 0 1-4.4-2.229 4 4 0 0 0-5.492 5.817 19.665 19.665 0 0 0 7.385 4.009 38.466 38.466 0 0 0 12.06 1.837H220.5a40.677 40.677 0 0 0 25-8.545c.333 5.506.861 10.041.893 10.316 0 .018.009.035.012.053s0 .035 0 .052c.1.676 2.446 16.742 6.792 33.869a81.346 81.346 0 0 1 2.389 15.6c.874 16.464 2.83 47.764 6.039 72.419z" fill="#000000" opacity="1" data-original="#000000" class=""></path><path d="M248.827 220.118a4 4 0 1 0-7.785-1.838c-.695 2.94-1.443 5.9-2.223 8.787a87.876 87.876 0 0 0 .365 46.688 121.485 121.485 0 0 1 3.206 14.854l3.4 31.628a4 4 0 0 0 7.955-.856l-3.413-31.724a126.623 126.623 0 0 0-3.448-16.069 79.882 79.882 0 0 1-.343-42.435 290.237 290.237 0 0 0 2.286-9.035zM89.655 287.753l-3.4 31.628a4 4 0 0 0 7.955.856l3.39-31.532a120.232 120.232 0 0 1 3.218-14.95 87.887 87.887 0 0 0 .366-46.688 282.03 282.03 0 0 1-2.109-8.308 4 4 0 1 0-7.783 1.85c.668 2.813 1.4 5.687 2.168 8.543a79.886 79.886 0 0 1-.343 42.436 126.385 126.385 0 0 0-3.462 16.165zM34.911 273.793a4 4 0 0 0 4 3.944h.056a4 4 0 0 0 3.945-4.056 204.549 204.549 0 0 1 6.588-54.7 107.006 107.006 0 0 0 3.7-30.036c-.953-42.312 1.6-73.8 6.993-86.395a4.159 4.159 0 0 0 .165-.462c.24-.815 6.141-20.018 29.158-23.913 19.12-3.236 38.237-16.273 48.022-23.835v3.16a4 4 0 0 0 8 0V20.191a4 4 0 0 0-8 0v23.863c-5.619 4.726-28.048 22.627-49.357 26.234-26.863 4.545-34.554 26.494-35.436 29.322-7.9 18.76-8.121 64.1-7.549 89.516a98.961 98.961 0 0 1-3.426 27.788 212.744 212.744 0 0 0-6.859 56.879z" fill="#000000" opacity="1" data-original="#000000" class=""></path><path d="m161.608 86.4-.482-.106a4.411 4.411 0 0 1-2.205-1.22l-.358-.367a18.606 18.606 0 0 0-13.212-5.552h-6.407a4 4 0 0 0 0 8h6.407a10.557 10.557 0 0 1 7.5 3.149l.36.368a12.388 12.388 0 0 0 6.207 3.437l.481.105a4 4 0 1 0 1.713-7.814zM135.46 186.29a38.455 38.455 0 0 0 12.059-1.837 19.662 19.662 0 0 0 7.386-4.009 4 4 0 0 0-5.492-5.817 11.832 11.832 0 0 1-4.4 2.229 30.491 30.491 0 0 1-9.554 1.434H119.5a32.219 32.219 0 0 1-30.594-21.5 47.145 47.145 0 0 1-2.564-13.815 4 4 0 0 0-3.971-4.022h-.03a4 4 0 0 0-4 3.972 54.383 54.383 0 0 0 3 16.472 39.326 39.326 0 0 0 5.429 10.381c0 7.645-1.032 16.7-1.1 17.291-.137.929-2.487 16.712-6.62 33a89.239 89.239 0 0 0-2.624 17.141c-.874 16.344-2.813 47.406-5.989 71.813a4 4 0 1 0 7.933 1.032c3.209-24.669 5.165-55.96 6.044-72.418a81.325 81.325 0 0 1 2.39-15.6c4.346-17.127 6.693-33.193 6.791-33.869v-.052c0-.018.01-.035.012-.053.032-.275.56-4.81.893-10.316a40.677 40.677 0 0 0 25 8.545z" fill="#000000" opacity="1" data-original="#000000" class=""></path><path d="M122.115 170.3a4 4 0 1 0 0-8h-3.458a4 4 0 1 0 0 8zM140.559 227.572a4 4 0 1 0-3.232 7.317 37.193 37.193 0 0 0 14.832 2.956 4 4 0 0 0 0-8 29.047 29.047 0 0 1-11.6-2.273zM181.08 85.07a4.408 4.408 0 0 1-2.206 1.221l-.482.106a4 4 0 1 0 1.713 7.814l.481-.105a12.376 12.376 0 0 0 6.209-3.44l.357-.364a10.558 10.558 0 0 1 7.5-3.15h6.408a4 4 0 0 0 0-8h-6.408a18.607 18.607 0 0 0-13.213 5.553zM221.343 170.3a4 4 0 1 0 0-8h-3.458a4 4 0 0 0 0 8zM170 160.313a4 4 0 0 0 4-4V126.84a4 4 0 0 0-8 0v29.473a4 4 0 0 0 4 4zM165.8 232.46c-1.208 3.734-4.094 14.5-1.452 25.474A65.345 65.345 0 0 1 166 273.34v1.206a4 4 0 0 0 8 0v-1.206a73.228 73.228 0 0 0-1.879-17.279c-1.72-7.141-.485-14.427.565-18.588a36.748 36.748 0 0 0 7.645.791 39.251 39.251 0 0 0 12.066-1.919 4 4 0 1 0-2.453-7.614 30.121 30.121 0 0 1-16.695.649 44.718 44.718 0 0 1 .518-23.743 4 4 0 0 0-7.53-2.7 51.937 51.937 0 0 0-.437 29.523zM174 293.738v-3.428a4 4 0 0 0-8 0v3.428a4 4 0 0 0 8 0z" fill="#000000" opacity="1" data-original="#000000" class=""></path></g></svg>