<svg xmlns="http://www.w3.org/2000/svg" version="1.1" xmlns:xlink="http://www.w3.org/1999/xlink" width="512" height="512" x="0" y="0" viewBox="0 0 682.667 682.667" style="enable-background:new 0 0 512 512" xml:space="preserve" class=""><g transform="matrix(0.93,0,0,0.93,38.89322883605951,-111.10658711433422)"><defs><clipPath id="a" clipPathUnits="userSpaceOnUse"><path d="M0 512h512V0H0Z" fill="#000000" opacity="1" data-original="#000000"></path></clipPath></defs><g clip-path="url(#a)" transform="matrix(1.33333 0 0 -1.33333 0 682.667)"><path d="m0 0 63.075-156.341c5.755-14.729 29.772-92.734-49.227-177.615 3.311-5.972 10.71-8.318 16.858-5.348l99.163 59.315 24.287 5.586c19.537 3.536 26.579 28.185 11.608 41.226-8.531 7.431-17.934 12.142-17.934 12.142-7.674 7.011-17.194 36.584-14.893 46.817 0 0 19.484 105.927-10.255 165.965-4.61 9.304-20.256 30.608-27.225 39.936" style="stroke-width:20;stroke-linecap:round;stroke-linejoin:round;stroke-miterlimit:10;stroke-dasharray:none;stroke-opacity:1" transform="translate(240.463 350.588)" fill="none" stroke="#000000" stroke-width="20" stroke-linecap="round" stroke-linejoin="round" stroke-miterlimit="10" stroke-dasharray="none" stroke-opacity="" data-original="#000000" class=""></path><path d="m0 0-32.046-31.111" style="stroke-width:20;stroke-linecap:round;stroke-linejoin:round;stroke-miterlimit:10;stroke-dasharray:none;stroke-opacity:1" transform="translate(271.132 502)" fill="none" stroke="#000000" stroke-width="20" stroke-linecap="round" stroke-linejoin="round" stroke-miterlimit="10" stroke-dasharray="none" stroke-opacity="" data-original="#000000" class=""></path><path d="m0 0-31.937-31.679c-3.649-4.791-5.466-10.667-5.135-16.596l19.113-182.999c.882-15.79-.581-97.395-102.081-153.461 1.287-6.705 7.587-11.24 14.354-10.33l113.14 25.229 24.381-1.99c19.668-2.724 34.034 18.509 23.867 35.562-5.793 9.717-13.262 17.122-13.262 17.122-5.11 9.051-4.95 40.119.423 49.127 0 0 45.265 75.578 35.697 141.891-1.927 13.356-15.259 71.787-15.259 71.787s28.909-3.021 59.909 11.091c79.894 36.368 159.273 139.91 159.273 139.91" style="stroke-width:20;stroke-linecap:round;stroke-linejoin:round;stroke-miterlimit:10;stroke-dasharray:none;stroke-opacity:1" transform="translate(174.778 407.336)" fill="none" stroke="#000000" stroke-width="20" stroke-linecap="round" stroke-linejoin="round" stroke-miterlimit="10" stroke-dasharray="none" stroke-opacity="" data-original="#000000" class=""></path><path d="M0 0v0" style="stroke-width:20;stroke-linecap:round;stroke-linejoin:round;stroke-miterlimit:10;stroke-dasharray:none;stroke-opacity:1" transform="translate(207.061 439.24)" fill="none" stroke="#000000" stroke-width="20" stroke-linecap="round" stroke-linejoin="round" stroke-miterlimit="10" stroke-dasharray="none" stroke-opacity="" data-original="#000000" class=""></path></g></g></svg>