<svg xmlns="http://www.w3.org/2000/svg" version="1.1" xmlns:xlink="http://www.w3.org/1999/xlink" width="512" height="512" x="0" y="0" viewBox="0 0 479.998 479.998" style="enable-background:new 0 0 512 512" xml:space="preserve" class=""><g transform="matrix(1,0,0,1,-10,-85)"><path d="M67.176 242.25c15.401.142 29.914 4.793 42.482 13.509a153.908 153.908 0 0 0-4.778 4.436c-5.127 4.987-1.573 13.734 5.579 13.734 2.01 0 4.023-.753 5.578-2.266 36.669-35.668 90.69-46.322 144.504-28.497a8 8 0 0 0 5.031-15.189c-48.828-16.173-101.51-11.989-142.963 17.441-16.79-12.941-36.479-19.17-55.36-19.17a8 8 0 0 0-7.998 7.926 7.998 7.998 0 0 0 7.925 8.076zM347.147 354.332c-1.792-4.038-6.52-5.861-10.557-4.068-46.312 20.548-122.764 32.026-198.449 2.616a8.003 8.003 0 0 0-9.181 2.505c-15.012 19.048-37.275 31.263-62.689 34.394a8 8 0 0 0 1.956 15.88c12.967-1.597 25.23-5.266 36.418-10.737 29.451 8.048 33.687 11.302 37.364 11.302a8.004 8.004 0 0 0 7.542-5.335 8 8 0 0 0-4.875-10.209c-7.2-2.546-14.381-4.9-21.666-7.113a105.28 105.28 0 0 0 14.729-13.741c70.156 25.608 147.708 20.634 205.338-4.937a8 8 0 0 0 4.07-10.557zM218.679 421.406c-9.617-3.631-21.644-9.39-36.308-15.776a8 8 0 0 0-6.389 14.669c14.925 6.501 26.761 12.194 37.046 16.076 4.097 1.549 8.737-.492 10.31-4.659a8 8 0 0 0-4.659-10.31zM375.444 364.026a8.002 8.002 0 0 0 7.785-6.191c1.484-6.387 2.554-13.149 3.24-20.118 12.055-10.88 20.175-22.85 23.556-34.773 16.788-59.192 7.674-100.494-1.141-140.435-10.499-47.571-10.874-60.697-10.544-90.506.252-22.719.392-35.234-15.152-49.153C370.576 11.556 346.21 2.248 323.934.213c-17.771-1.624-34.663 6.058-48.865 22.21-10.002 11.378-4.94 26.725.256 37.498-2.563 1.86-4.723 4.092-6.348 6.688-6.686 10.681-3.825 29.227 2.925 39.192 7.548 11.143 27.862 14.72 52.286 9.761-5.146 42.51-44.319 80.042-30.565 166.514a8.002 8.002 0 0 0 7.891 6.745c4.947 0 8.68-4.417 7.91-9.257-14.21-89.358 32.053-120.918 31.322-174.471-.072-5.28-5.166-9.057-10.246-7.568-26.465 7.745-42.597 3.369-45.351-.696-3.858-5.696-5.272-17.475-2.609-21.729 2.492-3.982 11.268-7.017 22.625-4.795a8 8 0 0 0 7.519-2.54l11.392-12.831a8 8 0 0 0-11.965-10.623l-8.5 9.574c-4.664-.532-9.14-.449-13.285.19-3.877-7.928-6.988-16.823-3.239-21.087 10.842-12.331 22.752-17.994 35.394-16.841 18.562 1.696 40.074 9.702 50.036 18.622 12.724 11.393 9.325 18.995 9.794 54.651 1.003 76.866 37.454 120.55 12.324 209.158-2.742 9.666-10.006 19.737-21.006 29.123-4.477 3.812-1.52 7.299-5.983 26.513-1.165 5.008 2.638 9.812 7.798 9.812zM293.173 427.073c-12.368 2.444-25.159 2.894-37.623 1.884-4.397-.347-8.263 2.925-8.619 7.329s2.925 8.263 7.328 8.62c13.906 1.125 28.162.602 42.016-2.136a8 8 0 1 0-3.102-15.697zM364.492 386.024a8 8 0 0 0-11.084 2.268c-6.805 10.304-15.523 18.861-25.915 25.434-6.775 4.285-3.68 14.762 4.284 14.762a7.96 7.96 0 0 0 4.269-1.24c12.319-7.792 22.653-17.933 30.714-30.14a7.999 7.999 0 0 0-2.268-11.084zM419.28 467.378l-17.095-24.172 5.059.647a8.001 8.001 0 0 0 2.031-15.871c-24.703-3.162-23.87-3.219-25.664-2.87a7.984 7.984 0 0 0-6.311 6.257l-4.437 21.862a8 8 0 1 0 15.68 3.181l.755-3.719 16.919 23.923a8 8 0 1 0 13.063-9.238zM119.717 431.369a8.001 8.001 0 0 0-6.686-6.32c-1.571-.229-.504-.239-25.289 2.933a8 8 0 1 0 2.031 15.871l5.059-.647-17.095 24.171a8 8 0 0 0 13.063 9.239l16.918-23.922.754 3.718a8 8 0 0 0 15.681-3.181z" fill="#000000" opacity="1" data-original="#000000" class=""></path></g></svg>